<?xml version="1.0" standalone="no"?>
<!DOCTYPE svg PUBLIC "-//W3C//DTD SVG 20010904//EN"
 "http://www.w3.org/TR/2001/REC-SVG-20010904/DTD/svg10.dtd">
<svg version="1.0" xmlns="http://www.w3.org/2000/svg"
 width="514.000000pt" height="515.000000pt" viewBox="0 0 514.000000 515.000000"
 preserveAspectRatio="xMidYMid meet">

<g transform="translate(0.000000,515.000000) scale(0.100000,-0.100000)"
fill="#000000" stroke="none">
<path d="M1790 4279 c-270 -9 -375 -28 -509 -95 -77 -38 -109 -61 -181 -134
-109 -108 -169 -220 -201 -370 -27 -130 -38 -484 -38 -1160 0 -676 11 -1030
38 -1160 32 -150 92 -262 201 -370 108 -109 220 -169 370 -201 130 -27 484
-38 1160 -38 676 0 1030 11 1160 38 150 32 262 92 370 201 109 108 169 220
201 370 27 130 38 484 38 1160 0 676 -11 1030 -38 1160 -32 150 -92 262 -201
370 -72 73 -104 96 -181 134 -139 69 -227 84 -549 96 -301 11 -1317 10 -1640
-1z m1791 -893 c159 -37 270 -174 270 -331 0 -38 -18 -132 -49 -260 -28 -110
-75 -303 -107 -430 -61 -249 -77 -287 -150 -354 -71 -65 -123 -85 -230 -85
-78 0 -97 3 -147 27 -73 36 -150 119 -177 192 -37 98 -31 138 84 594 58 229
114 435 125 459 44 94 149 175 249 192 66 11 70 11 132 -4z m-823 -368 c109
-55 177 -155 188 -280 6 -56 -1 -92 -60 -323 -37 -143 -79 -284 -94 -314 -30
-60 -90 -118 -160 -152 -39 -20 -62 -24 -142 -24 -84 1 -101 4 -148 28 -118
62 -182 156 -190 283 -4 62 3 104 58 330 34 143 71 276 82 297 44 87 139 162
235 187 66 16 161 3 231 -32z m-935 -451 c67 -31 133 -94 167 -162 22 -43 25
-63 25 -150 0 -85 -4 -107 -24 -148 -70 -140 -235 -221 -382 -187 -67 15 -155
68 -190 112 -62 79 -74 116 -74 223 0 84 4 107 23 146 44 89 138 166 229 189
64 16 164 6 226 -23z"/>
</g>
</svg>
